<?xml version="1.0" encoding="utf-8"?>
<!-- Generator: Adobe Illustrator 25.2.0, SVG Export Plug-In . SVG Version: 6.00 Build 0)  -->
<svg version="1.1" id="Layer_1" xmlns="http://www.w3.org/2000/svg" xmlns:xlink="http://www.w3.org/1999/xlink" x="0px" y="0px"
	 viewBox="0 0 650 650" style="enable-background:new 0 0 650 650;" xml:space="preserve">
<style type="text/css">
	.st0{fill:#0C754D;}
</style>
<g>
	<g>
		<g>
			<polygon class="st0" points="379.34,285.43 270.86,285.43 325.1,184.75 			"/>
			<polygon class="st0" points="69.89,161.12 124.03,60.48 325.09,184.74 270.95,285.39 			"/>
		</g>
		<polygon class="st0" points="101.96,0.07 144.43,26.35 52.56,196.9 10.1,170.62 		"/>
		<ellipse class="st0" cx="24.23" cy="65.84" rx="24.17" ry="25.91"/>
	</g>
	<g>
		<g>
			<polygon class="st0" points="325.1,184.66 379.34,285.34 270.86,285.34 			"/>
			<rect x="270.94" y="285.31" class="st0" width="108.39" height="248.78"/>
		</g>
		<rect x="233.24" y="532.25" class="st0" width="183.73" height="52.56"/>
		<ellipse class="st0" cx="325.25" cy="624.09" rx="24.17" ry="25.91"/>
	</g>
	<g>
		<g>
			<polygon class="st0" points="270.86,285.34 325.1,184.66 379.34,285.34 			"/>
			<polygon class="st0" points="526.02,60.23 580.27,160.81 379.35,285.32 325.1,184.75 			"/>
		</g>
		<polygon class="st0" points="640.11,170.55 597.65,196.83 505.78,26.28 548.25,0 		"/>
		<ellipse class="st0" cx="625.83" cy="65.49" rx="24.17" ry="25.91"/>
	</g>
</g>
</svg>
